<?xml version="1.0" standalone="no"?>
<!DOCTYPE svg PUBLIC "-//W3C//DTD SVG 20010904//EN"
 "http://www.w3.org/TR/2001/REC-SVG-20010904/DTD/svg10.dtd">
<svg version="1.0" xmlns="http://www.w3.org/2000/svg"
 width="4267.000000pt" height="4267.000000pt" viewBox="0 0 4267.000000 4267.000000" style="background-color:white"
 preserveAspectRatio="xMidYMid meet">

<g transform="translate(0.000000,4267.000000) scale(0.100000,-0.100000)"
fill="#000000" stroke="none">
<path d="M0 21335 l0 -21335 21335 0 21335 0 0 21335 0 21335 -21335 0 -21335
0 0 -21335z m19816 14588 c-4 -9 -368 -645 -810 -1412 -441 -768 -812 -1414
-823 -1436 -30 -59 -11644 -20238 -11654 -20250 -5 -5 -9 1297 -9 3021 l0
3030 866 1504 c477 828 892 1552 924 1610 31 58 1042 1817 2247 3910 1204
2093 2192 3812 2195 3820 10 28 1798 3132 1819 3159 l21 26 -4034 5 -4033 5
-3 1500 c-1 825 0 1506 3 1513 3 9 1343 12 6651 12 6250 0 6646 -1 6640 -17z
m16329 -1498 l0 -1510 -4033 -5 -4034 -5 21 -26 c21 -27 1809 -3131 1819
-3158 3 -9 991 -1728 2195 -3821 1205 -2093 2216 -3852 2247 -3910 32 -58 447
-782 924 -1610 l866 -1504 0 -3030 c0 -1724 -4 -3026 -9 -3020 -10 11 -11624
20190 -11654 20249 -11 22 -382 668 -823 1436 -442 767 -806 1403 -810 1412
-6 16 389 17 6642 15 l6649 -3 0 -1510z m-7401 -14818 c4068 -7072 7396
-12862 7396 -12867 0 -7 -623 -10 -1747 -10 l-1748 0 -5644 9813 c-3105 5396
-5650 9820 -5656 9829 -9 14 -986 -1679 -5665 -9813 l-5655 -9829 -1747 0
c-1124 0 -1748 3 -1748 10 0 19 14803 25741 14810 25733 4 -4 3336 -5794 7404
-12866z"/>
</g>
</svg>
