<svg id="svg" xmlns="http://www.w3.org/2000/svg" xmlns:xlink="http://www.w3.org/1999/xlink" width="400" height="107.94132524026303" viewBox="0, 0, 400,107.94132524026303"><g id="svgg"><path id="path0" d="M0.000 11.280 L 0.000 16.287 13.101 16.287 C 24.829 16.287,26.201 16.304,26.201 16.443 C 26.201 16.713,25.808 17.383,25.613 17.445 C 25.501 17.480,25.430 17.594,25.435 17.730 C 25.440 17.892,25.392 17.948,25.266 17.927 C 25.105 17.900,25.024 18.123,25.079 18.443 C 25.106 18.602,24.747 19.108,24.650 19.048 C 24.596 19.015,24.583 19.039,24.622 19.101 C 24.700 19.228,24.454 19.770,24.176 20.081 C 24.077 20.192,23.980 20.369,23.961 20.475 C 23.941 20.580,23.834 20.717,23.724 20.778 C 23.501 20.902,23.065 21.323,23.065 21.414 C 23.065 21.445,23.134 21.415,23.217 21.345 C 23.341 21.243,23.369 21.249,23.369 21.378 C 23.369 21.465,23.323 21.564,23.268 21.598 C 23.212 21.633,23.166 21.748,23.166 21.855 C 23.166 21.962,23.053 22.123,22.914 22.214 C 22.776 22.305,22.688 22.420,22.718 22.470 C 22.749 22.520,22.703 22.632,22.616 22.719 C 22.497 22.839,22.457 22.845,22.452 22.744 C 22.448 22.670,22.404 22.712,22.354 22.838 C 22.304 22.963,22.284 23.123,22.311 23.192 C 22.338 23.262,22.200 23.562,22.004 23.858 C 21.809 24.155,21.649 24.442,21.649 24.496 C 21.649 24.550,21.608 24.569,21.557 24.538 C 21.507 24.507,21.488 24.569,21.516 24.675 C 21.554 24.821,21.507 24.878,21.330 24.903 C 21.174 24.925,21.081 25.015,21.060 25.164 C 21.042 25.290,20.963 25.392,20.883 25.392 C 20.750 25.392,20.687 25.644,20.733 25.984 C 20.745 26.068,20.704 26.091,20.628 26.044 C 20.548 25.994,20.531 26.010,20.580 26.089 C 20.621 26.156,20.611 26.265,20.557 26.332 C 20.504 26.399,20.427 26.561,20.387 26.691 C 20.265 27.090,19.719 27.827,19.601 27.754 C 19.528 27.709,19.514 27.748,19.560 27.867 C 19.653 28.109,19.442 28.366,19.269 28.222 C 19.177 28.146,19.143 28.153,19.146 28.246 C 19.171 28.860,19.114 29.056,18.925 29.007 C 18.795 28.972,18.747 28.998,18.780 29.086 C 18.808 29.157,18.784 29.245,18.727 29.280 C 18.670 29.315,18.647 29.406,18.676 29.483 C 18.739 29.645,18.266 30.435,18.060 30.514 C 17.982 30.544,17.944 30.633,17.974 30.713 C 18.039 30.883,17.822 31.181,17.692 31.101 C 17.643 31.070,17.602 31.093,17.602 31.152 C 17.602 31.211,17.503 31.358,17.383 31.479 C 17.222 31.640,17.208 31.682,17.332 31.634 C 17.542 31.554,17.544 31.639,17.344 32.118 C 17.257 32.326,17.097 32.519,16.989 32.547 C 16.881 32.575,16.793 32.681,16.793 32.783 C 16.793 32.884,16.749 32.995,16.695 33.028 C 16.641 33.062,16.547 33.274,16.486 33.499 C 16.396 33.832,16.338 33.900,16.180 33.859 C 16.055 33.826,15.984 33.859,15.984 33.950 C 15.984 34.028,15.941 34.092,15.888 34.092 C 15.836 34.092,15.812 34.188,15.834 34.306 C 15.906 34.677,15.611 35.237,15.377 35.176 C 15.212 35.132,15.174 35.173,15.173 35.391 C 15.171 35.677,15.057 35.919,14.912 35.947 C 14.863 35.956,14.838 36.046,14.855 36.147 C 14.897 36.395,14.665 36.678,14.559 36.506 C 14.512 36.431,14.456 36.538,14.416 36.780 C 14.333 37.279,14.064 37.824,13.841 37.945 C 13.748 37.995,13.657 38.140,13.639 38.265 C 13.621 38.390,13.538 38.493,13.455 38.493 C 13.371 38.493,13.260 38.640,13.206 38.821 C 13.153 39.002,13.051 39.150,12.979 39.150 C 12.907 39.150,12.848 39.223,12.848 39.311 C 12.848 39.399,12.745 39.559,12.620 39.665 C 12.455 39.806,12.441 39.842,12.570 39.797 C 12.667 39.763,12.747 39.780,12.747 39.835 C 12.747 39.970,12.437 40.706,12.354 40.769 C 12.317 40.797,12.205 40.948,12.105 41.104 C 11.958 41.335,11.896 41.366,11.779 41.269 C 11.636 41.151,11.589 41.284,11.607 41.755 C 11.609 41.825,11.552 41.882,11.479 41.882 C 11.407 41.882,11.323 41.825,11.294 41.755 C 11.265 41.686,11.248 41.767,11.255 41.935 C 11.271 42.301,11.159 42.515,10.995 42.432 C 10.929 42.399,10.947 42.433,11.035 42.506 C 11.197 42.642,11.012 43.304,10.760 43.487 C 10.712 43.522,10.600 43.687,10.512 43.854 C 10.423 44.021,10.301 44.147,10.240 44.135 C 10.139 44.114,9.989 44.407,9.969 44.664 C 9.964 44.719,9.780 45.100,9.558 45.511 C 9.337 45.921,9.091 46.385,9.013 46.543 C 8.860 46.848,8.530 47.064,8.635 46.789 C 8.667 46.705,8.650 46.636,8.596 46.636 C 8.542 46.636,8.498 46.727,8.498 46.839 C 8.498 46.950,8.456 47.041,8.406 47.041 C 8.356 47.041,8.337 47.126,8.364 47.230 C 8.435 47.501,7.834 48.727,7.534 48.924 C 7.395 49.015,7.287 49.141,7.294 49.203 C 7.326 49.474,7.272 49.548,7.080 49.498 C 6.928 49.458,6.891 49.483,6.935 49.598 C 6.968 49.683,6.947 49.781,6.890 49.816 C 6.833 49.851,6.810 49.940,6.838 50.012 C 6.919 50.223,6.439 51.039,6.243 51.023 C 6.115 51.013,6.086 51.065,6.128 51.233 C 6.162 51.370,6.123 51.507,6.026 51.588 C 5.939 51.660,5.867 51.801,5.867 51.902 C 5.867 52.113,5.587 52.429,5.465 52.354 C 5.383 52.303,5.259 52.650,5.202 53.094 C 5.140 53.571,4.731 53.994,4.623 53.692 C 4.599 53.623,4.593 53.685,4.611 53.830 C 4.649 54.144,4.364 54.613,4.249 54.426 C 4.207 54.359,4.179 54.479,4.186 54.694 C 4.196 55.023,4.164 55.088,3.975 55.115 C 3.771 55.144,3.607 55.393,3.654 55.604 C 3.689 55.761,3.343 56.436,3.181 56.527 C 3.094 56.576,3.008 56.704,2.991 56.811 C 2.974 56.918,2.890 57.000,2.804 56.993 C 2.699 56.985,2.609 57.133,2.530 57.448 C 2.425 57.865,2.398 57.897,2.282 57.738 C 2.168 57.583,2.154 57.613,2.174 57.970 C 2.189 58.231,2.135 58.461,2.026 58.603 C 1.931 58.726,1.731 59.088,1.581 59.408 C 1.432 59.728,1.245 59.990,1.167 59.990 C 1.087 59.990,1.011 60.112,0.993 60.268 C 0.971 60.460,0.906 60.542,0.784 60.532 C 0.673 60.523,0.607 60.589,0.607 60.709 C 0.607 60.833,0.536 60.900,0.405 60.900 C 0.270 60.900,0.202 60.968,0.202 61.103 C 0.202 61.214,0.157 61.305,0.101 61.305 C 0.034 61.305,0.000 64.778,0.000 71.523 L 0.000 81.740 0.250 81.740 C 0.426 81.740,0.483 81.697,0.443 81.594 C 0.411 81.508,0.536 81.298,0.746 81.089 C 0.943 80.892,1.159 80.549,1.225 80.327 C 1.294 80.096,1.426 79.898,1.533 79.864 C 1.636 79.831,1.720 79.722,1.720 79.621 C 1.720 79.415,1.956 79.177,2.058 79.279 C 2.094 79.316,2.124 79.274,2.124 79.186 C 2.124 79.098,2.181 79.002,2.251 78.974 C 2.351 78.933,2.351 78.904,2.248 78.832 C 2.150 78.762,2.228 78.552,2.582 77.939 C 3.062 77.109,3.175 76.906,3.327 76.606 C 3.377 76.509,3.494 76.436,3.589 76.444 C 3.720 76.456,3.746 76.405,3.701 76.224 C 3.626 75.926,3.921 75.577,4.068 75.789 C 4.131 75.880,4.140 75.849,4.097 75.695 C 4.018 75.414,4.409 74.589,4.718 74.387 C 4.860 74.294,4.918 74.176,4.884 74.048 C 4.851 73.922,4.895 73.828,5.007 73.785 C 5.254 73.690,5.665 73.293,5.665 73.149 C 5.665 73.082,5.619 73.057,5.562 73.092 C 5.506 73.127,5.490 73.205,5.527 73.265 C 5.565 73.325,5.549 73.346,5.492 73.311 C 5.357 73.227,6.111 71.668,6.327 71.585 C 6.415 71.552,6.461 71.482,6.430 71.431 C 6.341 71.288,6.479 71.017,6.640 71.017 C 6.719 71.017,6.810 70.948,6.843 70.865 C 6.875 70.781,6.961 70.713,7.036 70.713 C 7.110 70.713,7.196 70.672,7.227 70.621 C 7.259 70.571,7.193 70.554,7.082 70.583 C 6.827 70.649,6.828 70.554,7.084 70.024 C 7.266 69.647,7.375 69.555,7.603 69.585 C 7.640 69.590,7.657 69.516,7.642 69.420 C 7.603 69.179,7.767 68.892,7.945 68.892 C 8.094 68.892,8.131 68.788,8.098 68.463 C 8.088 68.356,8.224 68.201,8.441 68.073 C 8.819 67.850,8.947 67.694,8.599 67.881 C 8.289 68.047,8.341 67.809,8.751 67.187 C 8.945 66.891,9.105 66.585,9.105 66.507 C 9.105 66.429,9.263 66.262,9.457 66.136 C 9.756 65.942,10.096 65.531,9.812 65.706 C 9.671 65.793,9.687 65.637,9.863 65.216 C 9.947 65.016,10.110 64.802,10.226 64.740 C 10.342 64.678,10.412 64.602,10.381 64.571 C 10.350 64.540,10.414 64.389,10.524 64.235 C 10.634 64.081,10.723 63.882,10.723 63.792 C 10.723 63.703,10.814 63.552,10.926 63.457 C 11.037 63.361,11.128 63.197,11.128 63.092 C 11.128 62.987,11.310 62.684,11.533 62.418 C 11.755 62.152,11.937 61.844,11.937 61.733 C 11.937 61.513,12.183 61.257,12.316 61.339 C 12.362 61.368,12.398 61.269,12.396 61.120 C 12.393 60.901,12.435 60.854,12.616 60.873 C 12.777 60.890,12.824 60.855,12.782 60.746 C 12.751 60.664,12.811 60.517,12.917 60.420 C 13.023 60.322,13.056 60.278,12.991 60.321 C 12.745 60.483,12.787 60.127,13.065 59.686 C 13.223 59.436,13.403 59.105,13.465 58.951 C 13.526 58.797,13.663 58.624,13.769 58.568 C 13.874 58.511,13.961 58.375,13.961 58.265 C 13.961 58.155,14.116 57.826,14.306 57.535 C 14.496 57.244,14.781 56.759,14.939 56.457 C 15.238 55.884,15.471 55.695,15.488 56.011 C 15.495 56.142,15.520 56.123,15.573 55.943 C 15.614 55.804,15.611 55.642,15.566 55.583 C 15.519 55.521,15.593 55.315,15.739 55.100 C 15.879 54.894,16.095 54.532,16.218 54.297 C 16.341 54.062,16.510 53.869,16.592 53.869 C 16.675 53.869,16.749 53.778,16.757 53.667 C 16.765 53.556,16.776 53.429,16.782 53.385 C 16.788 53.342,16.878 53.352,16.983 53.407 C 17.158 53.501,17.168 53.474,17.119 53.041 C 17.080 52.694,17.106 52.545,17.220 52.462 C 17.304 52.400,17.502 52.100,17.660 51.794 C 17.989 51.157,18.132 51.023,18.222 51.268 C 18.263 51.379,18.313 51.268,18.361 50.959 C 18.423 50.555,18.459 50.495,18.580 50.596 C 18.703 50.697,18.721 50.649,18.700 50.282 C 18.679 49.928,18.720 49.808,18.924 49.633 C 19.061 49.515,19.179 49.382,19.185 49.338 C 19.246 48.923,19.566 48.364,19.758 48.337 C 19.902 48.317,19.980 48.234,19.980 48.103 C 19.980 47.973,20.043 47.906,20.157 47.915 C 20.328 47.929,20.388 47.705,20.340 47.224 C 20.306 46.877,20.736 46.208,20.957 46.265 C 21.126 46.310,21.152 46.281,21.106 46.097 C 21.036 45.818,21.179 45.572,21.350 45.678 C 21.433 45.729,21.453 45.716,21.406 45.640 C 21.366 45.576,21.387 45.524,21.452 45.524 C 21.521 45.524,21.549 45.439,21.519 45.325 C 21.489 45.209,21.537 45.072,21.634 44.996 C 21.786 44.877,21.787 44.884,21.649 45.068 C 21.508 45.256,21.510 45.261,21.674 45.132 C 21.772 45.055,21.851 44.859,21.851 44.695 C 21.851 44.408,22.303 43.500,22.446 43.500 C 22.484 43.500,22.567 43.364,22.630 43.197 C 22.693 43.030,22.816 42.893,22.905 42.893 C 22.993 42.893,23.071 42.814,23.077 42.716 C 23.083 42.619,23.095 42.471,23.102 42.387 C 23.110 42.302,23.194 42.249,23.293 42.265 C 23.412 42.285,23.470 42.230,23.470 42.096 C 23.470 41.986,23.550 41.876,23.647 41.850 C 23.816 41.806,23.816 41.803,23.647 41.792 C 23.457 41.780,23.411 41.579,23.562 41.421 C 23.613 41.368,23.798 41.041,23.973 40.693 C 24.194 40.255,24.351 40.061,24.482 40.061 C 24.730 40.061,24.833 39.886,24.688 39.711 C 24.613 39.621,24.608 39.551,24.674 39.510 C 24.729 39.476,24.918 39.165,25.093 38.819 C 25.268 38.472,25.470 38.121,25.541 38.037 C 25.613 37.954,25.702 37.784,25.740 37.661 C 25.778 37.537,25.928 37.378,26.073 37.307 C 26.219 37.236,26.359 37.114,26.384 37.037 C 26.412 36.952,26.385 36.924,26.316 36.967 C 26.127 37.083,26.183 36.944,26.555 36.361 C 26.750 36.057,26.909 35.744,26.909 35.665 C 26.909 35.489,27.201 35.186,27.308 35.251 C 27.351 35.278,27.365 35.191,27.340 35.059 C 27.294 34.820,27.610 34.523,27.756 34.669 C 27.791 34.704,27.820 34.667,27.820 34.586 C 27.820 34.506,27.911 34.375,28.022 34.294 C 28.134 34.214,28.222 34.056,28.218 33.943 C 28.212 33.745,28.209 33.746,28.124 33.955 C 28.027 34.196,27.820 34.365,27.820 34.204 C 27.820 34.147,27.951 33.878,28.112 33.606 C 28.272 33.334,28.435 33.011,28.474 32.888 C 28.513 32.765,28.655 32.623,28.789 32.572 C 28.961 32.506,29.025 32.412,29.008 32.249 C 28.990 32.083,29.033 32.022,29.160 32.032 C 29.271 32.041,29.337 31.975,29.337 31.855 C 29.337 31.750,29.406 31.664,29.489 31.664 C 29.573 31.664,29.641 31.620,29.641 31.566 C 29.641 31.512,29.573 31.494,29.489 31.526 C 29.261 31.614,29.305 31.420,29.624 30.936 C 29.781 30.697,29.968 30.356,30.038 30.179 C 30.108 30.002,30.229 29.833,30.308 29.803 C 30.386 29.773,30.450 29.678,30.450 29.593 C 30.450 29.352,31.056 28.575,31.217 28.608 C 31.306 28.627,31.361 28.554,31.361 28.417 C 31.361 28.296,31.440 28.138,31.538 28.067 C 31.645 27.988,31.715 27.804,31.715 27.600 C 31.715 27.348,31.757 27.267,31.884 27.276 C 32.032 27.287,32.233 26.902,32.189 26.690 C 32.152 26.510,32.973 25.127,33.170 25.038 C 33.313 24.973,33.377 24.873,33.348 24.760 C 33.320 24.652,33.359 24.583,33.447 24.583 C 33.614 24.583,33.787 24.194,33.710 23.991 C 33.647 23.825,33.908 23.639,33.998 23.785 C 34.033 23.841,34.065 23.759,34.069 23.602 C 34.074 23.446,34.149 23.182,34.236 23.015 C 34.323 22.848,34.395 22.653,34.395 22.583 C 34.395 22.512,34.509 22.402,34.648 22.339 C 34.817 22.262,34.901 22.142,34.901 21.977 C 34.901 21.825,34.971 21.713,35.083 21.684 C 35.287 21.630,35.572 21.244,35.408 21.244 C 35.243 21.244,35.289 21.065,35.565 20.627 C 35.713 20.394,35.881 20.238,35.954 20.266 C 36.043 20.300,36.070 20.243,36.040 20.088 C 36.016 19.962,36.069 19.788,36.157 19.699 C 36.245 19.611,36.318 19.447,36.318 19.335 C 36.318 19.101,36.757 18.581,36.864 18.688 C 36.903 18.728,36.906 18.682,36.869 18.587 C 36.803 18.415,37.261 17.501,37.414 17.501 C 37.456 17.501,37.533 17.356,37.587 17.179 C 37.698 16.809,37.897 16.697,37.967 16.965 C 38.014 17.146,38.085 16.767,38.044 16.550 C 38.000 16.312,38.140 16.163,38.292 16.288 C 38.421 16.395,38.442 16.355,38.442 16.005 C 38.442 15.563,38.967 14.589,39.031 14.911 C 39.084 15.176,39.251 14.988,39.251 14.663 C 39.251 14.463,39.302 14.365,39.406 14.365 C 39.570 14.365,39.669 14.187,39.708 13.825 C 39.721 13.705,39.737 13.567,39.744 13.518 C 39.751 13.470,39.820 13.482,39.896 13.545 C 40.010 13.640,40.037 13.581,40.044 13.216 C 40.053 12.752,40.363 12.099,40.622 12.000 C 40.703 11.969,40.769 11.824,40.769 11.678 C 40.769 11.498,40.834 11.396,40.971 11.360 C 41.095 11.327,41.173 11.222,41.173 11.087 C 41.173 10.823,41.400 10.365,41.909 9.600 C 42.117 9.288,42.286 8.967,42.286 8.887 C 42.286 8.562,42.647 8.387,42.722 8.675 C 42.766 8.841,42.833 8.394,42.804 8.135 C 42.797 8.075,42.904 7.825,43.043 7.579 C 43.181 7.333,43.340 7.028,43.396 6.902 C 43.523 6.614,43.795 6.501,43.914 6.687 C 43.978 6.789,44.003 6.751,44.005 6.550 L 44.006 6.272 22.003 6.272 L 0.000 6.272 0.000 11.280 M53.515 6.351 C 53.515 6.394,53.593 6.541,53.689 6.677 C 53.784 6.813,53.867 6.994,53.874 7.079 C 53.906 7.506,53.933 7.564,54.097 7.551 C 54.219 7.541,54.272 7.607,54.266 7.763 C 54.262 7.896,54.333 8.013,54.438 8.046 C 54.537 8.078,54.648 8.204,54.685 8.326 C 54.722 8.448,54.909 8.788,55.101 9.081 C 55.293 9.373,55.442 9.692,55.432 9.789 C 55.385 10.251,55.436 10.446,55.573 10.332 C 55.744 10.190,55.842 10.284,55.842 10.588 C 55.842 10.753,55.900 10.824,56.035 10.824 C 56.158 10.824,56.266 10.935,56.335 11.134 C 56.394 11.304,56.583 11.651,56.754 11.904 C 56.925 12.158,57.058 12.440,57.049 12.531 C 57.019 12.844,57.057 12.925,57.258 12.978 C 57.395 13.014,57.461 13.116,57.461 13.294 C 57.461 13.460,57.517 13.556,57.614 13.556 C 57.761 13.556,58.503 14.948,58.531 15.276 C 58.538 15.359,58.550 15.503,58.559 15.595 C 58.568 15.703,58.638 15.746,58.753 15.716 C 58.886 15.681,58.990 15.788,59.156 16.130 C 59.309 16.445,59.341 16.592,59.255 16.594 C 59.186 16.596,59.213 16.645,59.316 16.705 C 59.449 16.783,59.486 16.888,59.446 17.081 C 59.416 17.229,59.416 17.293,59.446 17.223 C 59.535 17.019,59.768 17.078,59.843 17.324 C 59.881 17.449,59.977 17.625,60.055 17.715 C 60.134 17.804,60.208 18.021,60.220 18.196 C 60.234 18.396,60.288 18.497,60.364 18.468 C 60.502 18.416,60.643 18.761,60.547 18.917 C 60.512 18.973,60.535 19.019,60.597 19.019 C 60.659 19.019,60.682 19.064,60.648 19.119 C 60.613 19.175,60.652 19.194,60.737 19.161 C 60.840 19.121,60.954 19.233,61.096 19.512 C 61.350 20.009,61.372 20.212,61.153 20.030 C 61.036 19.933,61.002 19.932,61.002 20.027 C 61.002 20.095,61.093 20.174,61.204 20.203 C 61.315 20.232,61.406 20.314,61.406 20.384 C 61.406 20.455,61.503 20.538,61.622 20.569 C 61.781 20.611,61.823 20.681,61.783 20.834 C 61.746 20.975,61.800 21.097,61.947 21.207 C 62.103 21.324,62.115 21.353,61.988 21.311 C 61.890 21.278,61.811 21.295,61.811 21.349 C 61.811 21.403,61.879 21.447,61.963 21.447 C 62.055 21.447,62.114 21.541,62.114 21.690 C 62.114 21.881,62.157 21.922,62.309 21.883 C 62.526 21.826,62.811 22.264,62.868 22.744 C 62.886 22.893,62.906 23.044,62.912 23.079 C 62.918 23.114,63.014 23.166,63.125 23.195 C 63.235 23.224,63.372 23.378,63.429 23.536 C 63.572 23.936,63.837 24.411,63.985 24.532 C 64.205 24.713,64.548 25.478,64.439 25.545 C 64.296 25.633,64.415 25.792,64.706 25.903 C 64.842 25.954,64.978 26.076,65.009 26.175 C 65.086 26.416,65.520 27.274,65.817 27.769 C 65.950 27.992,66.047 28.265,66.034 28.376 C 66.018 28.504,66.093 28.616,66.238 28.679 C 66.364 28.734,66.444 28.839,66.416 28.912 C 66.386 28.992,66.411 29.016,66.480 28.974 C 66.558 28.925,66.579 28.986,66.545 29.166 C 66.517 29.310,66.522 29.425,66.555 29.422 C 66.793 29.394,66.901 29.506,67.122 30.006 C 67.260 30.318,67.347 30.615,67.316 30.666 C 67.284 30.717,67.296 30.752,67.342 30.744 C 67.580 30.703,67.678 30.778,67.678 31.001 C 67.678 31.137,67.761 31.307,67.862 31.380 C 67.963 31.453,68.194 31.820,68.376 32.195 C 68.558 32.571,68.740 32.878,68.782 32.878 C 68.868 32.878,69.310 33.731,69.288 33.856 C 69.250 34.069,69.309 34.193,69.448 34.193 C 69.678 34.193,70.354 35.527,70.275 35.827 C 70.248 35.930,70.268 36.014,70.318 36.014 C 70.368 36.014,70.410 36.134,70.410 36.279 C 70.410 36.510,70.431 36.527,70.569 36.412 C 70.701 36.303,70.744 36.305,70.817 36.423 C 70.868 36.506,70.865 36.590,70.809 36.625 C 70.756 36.657,70.849 36.785,71.016 36.908 C 71.184 37.032,71.320 37.220,71.320 37.327 C 71.320 37.434,71.377 37.558,71.447 37.602 C 71.559 37.674,71.927 38.364,71.927 38.502 C 71.927 38.531,71.870 38.522,71.801 38.481 C 71.731 38.441,71.754 38.498,71.851 38.610 C 71.949 38.721,72.028 38.917,72.028 39.044 C 72.028 39.238,72.053 39.256,72.179 39.151 C 72.347 39.011,72.511 39.246,72.385 39.449 C 72.349 39.507,72.371 39.555,72.433 39.555 C 72.495 39.555,72.518 39.600,72.484 39.655 C 72.450 39.711,72.487 39.730,72.569 39.699 C 72.671 39.660,72.753 39.754,72.835 40.003 C 72.901 40.202,72.999 40.364,73.053 40.364 C 73.182 40.364,73.576 41.253,73.516 41.409 C 73.474 41.519,73.675 41.788,73.797 41.783 C 73.826 41.781,73.894 41.780,73.949 41.780 C 74.003 41.780,74.079 41.906,74.117 42.059 C 74.156 42.212,74.333 42.545,74.512 42.799 C 74.990 43.480,75.134 43.808,75.148 44.248 C 75.161 44.692,75.236 44.824,75.361 44.622 C 75.426 44.517,75.462 44.535,75.514 44.700 C 75.551 44.818,75.554 44.961,75.519 45.017 C 75.484 45.073,75.503 45.119,75.560 45.119 C 75.617 45.119,75.638 45.199,75.607 45.296 C 75.563 45.433,75.572 45.441,75.649 45.334 C 75.790 45.136,75.931 45.257,76.215 45.823 C 76.351 46.094,76.558 46.411,76.673 46.527 C 76.789 46.643,76.884 46.803,76.884 46.884 C 76.884 46.965,77.031 47.248,77.210 47.514 C 77.856 48.471,78.004 48.862,77.722 48.862 C 77.577 48.862,77.585 48.888,77.768 49.016 C 77.892 49.103,77.964 49.235,77.933 49.316 C 77.893 49.419,77.937 49.449,78.087 49.420 C 78.260 49.387,78.293 49.426,78.275 49.644 C 78.263 49.790,78.310 49.927,78.380 49.951 C 78.661 50.044,78.799 50.291,78.750 50.611 C 78.721 50.808,78.732 50.868,78.779 50.762 C 78.822 50.667,78.903 50.622,78.958 50.661 C 79.180 50.819,79.631 51.588,79.564 51.696 C 79.525 51.759,79.592 51.916,79.713 52.045 C 79.834 52.174,79.919 52.347,79.901 52.430 C 79.883 52.513,79.982 52.680,80.121 52.801 L 80.374 53.021 80.121 52.906 C 79.911 52.810,79.923 52.836,80.193 53.056 C 80.582 53.373,81.133 54.166,81.133 54.407 C 81.133 54.502,81.220 54.634,81.326 54.700 C 81.433 54.767,81.550 54.960,81.587 55.129 C 81.624 55.299,81.693 55.438,81.740 55.438 C 81.787 55.438,81.878 55.597,81.942 55.792 C 82.007 55.986,82.096 56.146,82.140 56.146 C 82.221 56.146,82.493 56.711,82.505 56.904 C 82.534 57.328,82.685 57.665,82.836 57.640 C 82.960 57.620,83.013 57.701,83.036 57.943 C 83.058 58.166,83.107 58.250,83.188 58.202 C 83.254 58.162,83.240 58.214,83.157 58.316 C 83.018 58.488,83.023 58.496,83.233 58.430 C 83.426 58.368,83.460 58.395,83.460 58.606 C 83.460 58.765,83.529 58.872,83.654 58.904 C 83.883 58.964,84.308 59.742,84.228 59.952 C 84.193 60.042,84.269 60.141,84.425 60.213 C 84.565 60.276,84.706 60.445,84.739 60.589 C 84.772 60.732,84.860 60.899,84.935 60.959 C 85.009 61.019,85.119 61.179,85.178 61.313 C 85.237 61.448,85.417 61.763,85.578 62.013 C 85.740 62.264,85.875 62.564,85.880 62.680 C 85.884 62.797,85.978 62.974,86.089 63.074 C 86.236 63.208,86.276 63.340,86.239 63.571 C 86.211 63.743,86.224 63.830,86.268 63.764 C 86.376 63.601,86.510 63.708,86.777 64.169 C 87.046 64.633,87.049 64.655,86.823 64.570 C 86.655 64.506,86.655 64.511,86.823 64.682 C 86.921 64.780,87.001 64.902,87.001 64.954 C 87.001 65.006,87.093 65.048,87.205 65.048 C 87.351 65.048,87.427 65.134,87.470 65.346 C 87.503 65.510,87.615 65.722,87.720 65.817 C 87.825 65.912,87.911 66.041,87.911 66.105 C 87.911 66.245,88.249 66.918,88.434 67.145 C 88.550 67.289,88.545 67.303,88.392 67.245 C 88.294 67.209,88.214 67.223,88.214 67.277 C 88.214 67.331,88.282 67.375,88.364 67.375 C 88.447 67.375,88.541 67.483,88.574 67.615 C 88.610 67.757,88.704 67.850,88.804 67.843 C 88.924 67.834,88.972 67.909,88.970 68.103 C 88.968 68.254,88.987 68.356,89.012 68.331 C 89.153 68.189,90.180 69.883,90.128 70.171 C 90.077 70.458,90.150 70.590,90.334 70.541 C 90.486 70.502,90.548 70.555,90.602 70.768 C 90.640 70.921,90.756 71.130,90.859 71.234 C 90.963 71.337,91.047 71.510,91.047 71.618 C 91.047 71.726,91.093 71.842,91.148 71.877 C 91.275 71.955,91.654 72.776,91.654 72.973 C 91.654 73.053,91.749 73.226,91.864 73.358 C 91.980 73.489,92.041 73.532,92.000 73.454 C 91.950 73.358,91.966 73.337,92.050 73.389 C 92.118 73.431,92.151 73.524,92.123 73.597 C 92.095 73.670,92.160 73.809,92.268 73.906 C 92.375 74.003,92.463 74.126,92.463 74.178 C 92.463 74.230,92.555 74.402,92.667 74.560 C 92.814 74.766,92.838 74.867,92.753 74.920 C 92.679 74.966,92.661 74.950,92.707 74.877 C 92.746 74.812,92.731 74.760,92.672 74.760 C 92.478 74.760,92.560 74.980,92.774 75.036 C 92.939 75.079,92.971 75.144,92.922 75.338 C 92.870 75.546,92.890 75.576,93.049 75.525 C 93.197 75.478,93.237 75.515,93.230 75.694 C 93.225 75.854,93.287 75.932,93.436 75.954 C 93.688 75.990,94.147 76.797,94.027 76.992 C 93.984 77.062,93.991 77.092,94.044 77.060 C 94.096 77.027,94.214 77.134,94.308 77.297 C 94.443 77.532,94.449 77.592,94.339 77.592 C 94.262 77.592,94.177 77.535,94.149 77.466 C 94.110 77.371,94.096 77.370,94.090 77.462 C 94.086 77.530,94.173 77.634,94.284 77.693 C 94.403 77.757,94.487 77.905,94.487 78.051 C 94.487 78.222,94.542 78.300,94.664 78.299 C 94.816 78.298,94.820 78.283,94.689 78.190 C 94.554 78.095,94.554 78.088,94.689 78.128 C 94.772 78.153,94.828 78.230,94.812 78.298 C 94.796 78.367,94.830 78.479,94.887 78.548 C 94.944 78.617,94.964 78.700,94.931 78.733 C 94.898 78.766,94.955 78.771,95.058 78.745 C 95.207 78.707,95.326 78.855,95.633 79.456 C 95.997 80.171,96.062 80.410,95.871 80.347 C 95.826 80.332,95.872 80.433,95.972 80.572 C 96.073 80.711,96.235 80.851,96.333 80.884 C 96.537 80.954,96.570 81.199,96.383 81.263 C 96.314 81.287,96.335 81.295,96.430 81.281 C 96.526 81.267,96.662 81.327,96.734 81.416 C 96.833 81.538,96.834 81.558,96.737 81.501 C 96.658 81.453,96.611 81.483,96.611 81.582 C 96.611 81.745,96.954 81.796,97.260 81.679 C 97.440 81.610,97.494 80.830,97.319 80.830 C 97.252 80.830,97.218 77.528,97.218 71.127 C 97.218 61.521,97.216 61.426,97.019 61.477 C 96.870 61.516,96.787 61.455,96.693 61.240 C 96.623 61.081,96.434 60.731,96.272 60.463 C 96.064 60.118,96.009 59.944,96.086 59.868 C 96.202 59.751,96.107 59.626,95.747 59.423 C 95.638 59.362,95.534 59.191,95.517 59.044 C 95.499 58.897,95.442 58.776,95.390 58.776 C 95.338 58.776,95.296 58.622,95.296 58.433 C 95.296 58.175,95.254 58.094,95.128 58.104 C 94.921 58.122,94.566 57.547,94.519 57.119 C 94.500 56.945,94.477 56.747,94.469 56.678 C 94.458 56.596,94.413 56.586,94.336 56.651 C 94.196 56.767,93.981 56.587,93.980 56.353 C 93.980 56.267,93.895 56.069,93.793 55.913 C 93.685 55.750,93.626 55.525,93.653 55.382 C 93.682 55.233,93.654 55.134,93.582 55.134 C 93.517 55.134,93.491 55.180,93.526 55.235 C 93.560 55.291,93.517 55.336,93.430 55.336 C 93.270 55.336,93.226 55.182,93.260 54.729 C 93.275 54.529,93.257 54.508,93.176 54.628 C 93.120 54.712,93.067 54.746,93.059 54.704 C 93.051 54.662,93.034 54.583,93.020 54.527 C 93.006 54.471,92.989 54.356,92.982 54.272 C 92.975 54.187,92.860 54.076,92.726 54.025 C 92.573 53.967,92.457 53.820,92.416 53.631 C 92.380 53.466,92.284 53.305,92.204 53.274 C 92.124 53.243,92.059 53.156,92.059 53.079 C 92.059 53.002,91.968 52.857,91.856 52.757 C 91.745 52.656,91.654 52.489,91.654 52.386 C 91.654 52.283,91.563 52.120,91.452 52.025 C 91.340 51.930,91.249 51.788,91.249 51.709 C 91.249 51.631,91.155 51.414,91.040 51.228 C 90.925 51.041,90.858 50.845,90.891 50.791 C 90.924 50.737,90.863 50.646,90.755 50.588 C 90.648 50.530,90.415 50.187,90.238 49.824 C 90.062 49.462,89.876 49.165,89.825 49.165 C 89.774 49.165,89.732 48.961,89.732 48.710 C 89.732 48.460,89.698 48.260,89.656 48.267 C 89.412 48.305,89.318 48.232,89.346 48.027 C 89.370 47.859,89.332 47.807,89.203 47.829 C 89.025 47.859,88.706 47.293,88.579 46.724 C 88.546 46.574,88.431 46.435,88.317 46.405 C 88.122 46.354,88.076 46.198,88.099 45.675 C 88.104 45.564,88.083 45.530,88.052 45.599 C 87.946 45.836,87.823 45.726,87.513 45.116 C 87.193 44.487,87.128 44.251,87.304 44.360 C 87.360 44.395,87.405 44.379,87.405 44.326 C 87.405 44.273,87.334 44.203,87.247 44.169 C 87.160 44.136,87.114 44.068,87.145 44.017 C 87.176 43.967,87.134 43.900,87.052 43.869 C 86.962 43.834,86.928 43.745,86.967 43.644 C 87.018 43.510,86.988 43.491,86.813 43.546 C 86.605 43.612,86.580 43.586,86.555 43.273 C 86.550 43.203,86.443 43.063,86.318 42.962 C 86.192 42.860,86.090 42.711,86.090 42.629 C 86.090 42.547,85.994 42.350,85.876 42.191 C 85.751 42.021,85.694 41.848,85.740 41.774 C 85.787 41.697,85.777 41.674,85.712 41.714 C 85.653 41.750,85.578 41.708,85.544 41.620 C 85.459 41.397,85.467 41.354,85.583 41.426 C 85.640 41.461,85.657 41.421,85.623 41.330 C 85.590 41.244,85.522 41.173,85.472 41.173 C 85.423 41.173,85.382 41.080,85.382 40.967 C 85.382 40.832,85.325 40.770,85.219 40.790 C 85.100 40.811,85.048 40.729,85.028 40.481 C 85.012 40.296,84.942 40.091,84.872 40.026 C 84.772 39.934,84.759 39.952,84.811 40.111 C 84.876 40.311,84.874 40.311,84.725 40.117 C 84.641 40.009,84.573 39.839,84.573 39.738 C 84.573 39.637,84.503 39.555,84.418 39.555 C 84.332 39.555,84.235 39.475,84.200 39.378 C 84.166 39.280,84.052 39.106,83.948 38.989 C 83.844 38.873,83.752 38.610,83.744 38.403 C 83.736 38.197,83.699 38.078,83.662 38.139 C 83.616 38.214,83.553 38.200,83.467 38.097 C 83.398 38.014,83.371 37.897,83.407 37.839 C 83.443 37.780,83.400 37.705,83.311 37.671 C 83.106 37.592,82.528 36.437,82.616 36.282 C 82.653 36.218,82.647 36.198,82.603 36.238 C 82.461 36.366,82.145 36.115,82.145 35.875 C 82.145 35.746,82.054 35.558,81.942 35.458 C 81.831 35.357,81.740 35.217,81.740 35.147 C 81.740 35.077,81.581 34.778,81.386 34.483 C 80.979 33.865,80.968 33.820,81.209 33.757 C 81.378 33.713,81.378 33.710,81.209 33.699 C 81.091 33.691,81.032 33.603,81.032 33.434 C 81.032 33.250,80.978 33.182,80.833 33.182 C 80.699 33.182,80.652 33.133,80.691 33.032 C 80.728 32.936,80.653 32.839,80.483 32.762 C 80.335 32.694,80.190 32.526,80.156 32.380 C 80.122 32.237,80.038 32.051,79.968 31.968 C 79.763 31.720,79.503 31.159,79.588 31.146 C 79.631 31.140,79.712 31.140,79.767 31.148 C 79.823 31.155,79.761 31.070,79.630 30.958 C 79.491 30.839,79.416 30.691,79.450 30.602 C 79.482 30.519,79.468 30.450,79.419 30.450 C 79.369 30.450,79.311 30.504,79.289 30.569 C 79.208 30.812,78.996 30.523,79.027 30.213 C 79.050 29.983,79.017 29.894,78.907 29.894 C 78.817 29.894,78.743 29.781,78.724 29.616 C 78.701 29.416,78.635 29.337,78.491 29.337 C 78.243 29.337,77.955 28.710,78.042 28.362 C 78.076 28.228,78.057 28.123,77.999 28.123 C 77.942 28.123,77.896 28.032,77.896 27.921 C 77.896 27.810,77.833 27.719,77.757 27.719 C 77.680 27.719,77.590 27.579,77.556 27.409 C 77.521 27.238,77.449 27.126,77.396 27.159 C 77.342 27.192,77.217 27.093,77.118 26.938 C 77.019 26.783,76.887 26.611,76.826 26.555 C 76.629 26.376,76.277 25.690,76.277 25.484 C 76.277 25.374,76.206 25.257,76.118 25.223 C 75.930 25.151,75.468 24.194,75.536 24.016 C 75.562 23.948,75.489 23.863,75.372 23.826 C 75.256 23.789,75.071 23.582,74.960 23.365 C 74.742 22.937,74.702 22.714,74.861 22.812 C 74.917 22.847,74.962 22.827,74.962 22.768 C 74.962 22.709,74.917 22.661,74.861 22.661 C 74.805 22.661,74.760 22.592,74.760 22.509 C 74.760 22.425,74.670 22.357,74.557 22.357 C 74.354 22.357,74.305 22.223,74.343 21.775 C 74.354 21.650,74.313 21.548,74.252 21.548 C 74.191 21.548,74.169 21.593,74.203 21.649 C 74.238 21.705,74.241 21.750,74.211 21.750 C 74.122 21.750,73.242 20.308,73.242 20.164 C 73.242 20.150,73.299 20.152,73.369 20.169 C 73.438 20.186,73.461 20.180,73.419 20.157 C 73.378 20.134,73.343 20.050,73.343 19.971 C 73.343 19.893,73.298 19.828,73.242 19.828 C 73.187 19.828,73.140 19.726,73.140 19.600 C 73.138 19.421,73.118 19.404,73.044 19.522 C 72.937 19.690,72.792 19.590,72.777 19.338 C 72.771 19.246,72.760 19.068,72.751 18.943 C 72.742 18.794,72.672 18.715,72.549 18.715 C 72.408 18.715,72.363 18.645,72.371 18.437 C 72.380 18.231,72.334 18.159,72.196 18.158 C 72.006 18.157,71.673 17.575,71.715 17.317 C 71.727 17.243,71.685 17.120,71.621 17.043 C 71.557 16.966,71.534 16.856,71.570 16.798 C 71.606 16.739,71.565 16.692,71.478 16.692 C 71.391 16.692,71.320 16.743,71.320 16.806 C 71.320 16.884,71.273 16.880,71.168 16.793 C 71.085 16.724,71.017 16.570,71.017 16.452 L 71.017 16.237 84.117 16.264 L 97.218 16.290 97.218 11.281 L 97.218 6.272 75.367 6.272 C 63.349 6.272,53.515 6.308,53.515 6.351 M48.397 17.314 C 48.205 17.530,48.205 17.530,48.437 17.408 C 48.640 17.302,48.620 17.362,48.286 17.874 C 47.843 18.551,47.735 18.650,47.622 18.482 C 47.572 18.407,47.548 18.458,47.560 18.614 C 47.590 19.031,47.553 19.221,47.440 19.221 C 47.381 19.221,47.360 19.176,47.394 19.121 C 47.430 19.064,47.389 19.047,47.299 19.081 C 47.166 19.132,47.084 19.464,47.131 19.755 C 47.144 19.835,46.909 20.281,46.479 20.991 C 46.344 21.214,46.183 21.523,46.121 21.677 C 46.058 21.832,45.876 22.027,45.715 22.110 C 45.554 22.193,45.422 22.285,45.422 22.315 C 45.422 22.345,45.468 22.341,45.524 22.307 C 45.807 22.131,45.344 23.138,45.036 23.367 C 44.996 23.396,44.918 23.556,44.862 23.723 C 44.806 23.890,44.693 24.026,44.611 24.026 C 44.416 24.026,44.313 24.174,44.311 24.453 C 44.310 24.611,44.264 24.660,44.158 24.619 C 44.053 24.579,44.006 24.626,44.006 24.774 C 44.006 24.891,43.949 24.988,43.880 24.989 C 43.792 24.990,43.797 25.018,43.898 25.082 C 44.042 25.173,43.664 26.100,43.483 26.100 C 43.445 26.100,43.364 26.255,43.301 26.444 C 43.237 26.638,43.102 26.809,42.990 26.839 C 42.859 26.873,42.792 26.977,42.792 27.147 C 42.792 27.352,42.750 27.396,42.583 27.363 C 42.450 27.338,42.390 27.368,42.418 27.445 C 42.443 27.512,42.366 27.677,42.248 27.811 C 42.069 28.014,42.063 28.044,42.210 27.991 C 42.459 27.902,42.431 28.060,42.110 28.555 C 41.958 28.791,41.778 29.108,41.711 29.262 C 41.591 29.532,41.437 29.619,41.350 29.464 C 41.327 29.422,41.321 29.443,41.337 29.511 C 41.354 29.579,41.325 29.660,41.275 29.691 C 41.224 29.723,41.206 29.809,41.234 29.884 C 41.263 29.958,41.153 30.218,40.990 30.462 C 40.828 30.706,40.641 31.072,40.575 31.276 C 40.509 31.480,40.389 31.672,40.309 31.703 C 40.228 31.734,40.162 31.819,40.162 31.891 C 40.162 31.964,40.025 32.144,39.858 32.290 C 39.691 32.437,39.578 32.618,39.607 32.693 C 39.686 32.900,38.851 34.396,38.656 34.396 C 38.608 34.396,38.541 34.532,38.508 34.699 C 38.474 34.866,38.389 35.003,38.318 35.003 C 38.247 35.004,38.110 35.142,38.014 35.311 C 37.918 35.481,37.884 35.591,37.938 35.558 C 38.077 35.472,38.065 35.518,37.832 35.970 C 37.472 36.669,37.210 37.074,37.065 37.157 C 36.988 37.202,36.925 37.331,36.925 37.445 C 36.925 37.567,36.841 37.673,36.722 37.705 C 36.611 37.734,36.520 37.821,36.520 37.897 C 36.520 37.974,36.470 38.037,36.408 38.037 C 36.346 38.037,36.322 38.105,36.353 38.187 C 36.425 38.372,36.143 39.071,35.953 39.181 C 35.875 39.225,35.812 39.321,35.812 39.395 C 35.812 39.468,35.721 39.643,35.610 39.785 C 35.498 39.926,35.407 40.107,35.407 40.187 C 35.407 40.363,35.042 40.714,34.979 40.598 C 34.955 40.553,34.950 40.576,34.968 40.650 C 35.033 40.908,34.495 41.882,34.287 41.882 C 34.147 41.882,34.092 41.952,34.092 42.135 C 34.092 42.292,34.035 42.387,33.940 42.387 C 33.798 42.387,33.741 42.565,33.783 42.875 C 33.813 43.100,33.570 43.334,33.470 43.176 C 33.412 43.084,33.387 43.110,33.385 43.264 C 33.385 43.385,33.327 43.506,33.257 43.534 C 33.156 43.575,33.156 43.587,33.257 43.593 C 33.420 43.604,33.419 43.752,33.256 43.923 C 33.186 43.996,33.070 44.170,32.998 44.310 C 32.519 45.241,32.384 45.403,32.260 45.201 C 32.223 45.141,32.159 45.287,32.119 45.525 C 32.036 46.019,31.814 46.594,31.674 46.681 C 31.621 46.713,31.435 47.035,31.259 47.396 C 31.083 47.757,30.906 48.053,30.866 48.053 C 30.825 48.053,30.704 48.124,30.596 48.212 C 30.488 48.299,30.456 48.342,30.526 48.307 C 30.727 48.205,30.676 48.546,30.430 48.951 C 30.171 49.378,30.043 49.484,29.867 49.420 C 29.779 49.388,29.753 49.450,29.783 49.617 C 29.810 49.765,29.763 49.914,29.664 49.994 C 29.526 50.106,29.514 50.103,29.587 49.975 C 29.638 49.884,29.636 49.857,29.581 49.908 C 29.531 49.954,29.489 50.131,29.489 50.300 C 29.489 50.501,29.420 50.647,29.289 50.721 C 28.987 50.893,28.828 51.124,28.957 51.203 C 29.065 51.271,28.633 52.123,28.426 52.252 C 28.371 52.286,28.326 52.396,28.326 52.497 C 28.326 52.777,28.035 52.987,27.905 52.801 C 27.831 52.695,27.821 52.735,27.867 52.943 C 27.949 53.320,27.760 53.573,27.534 53.390 C 27.447 53.320,27.406 53.311,27.441 53.371 C 27.477 53.431,27.443 53.601,27.366 53.750 C 27.288 53.899,27.268 54.021,27.321 54.021 C 27.374 54.021,27.362 54.109,27.295 54.217 C 27.227 54.325,27.137 54.391,27.093 54.364 C 27.049 54.336,27.043 54.392,27.080 54.488 C 27.124 54.605,27.108 54.638,27.029 54.589 C 26.955 54.543,26.932 54.569,26.967 54.660 C 27.026 54.814,26.674 55.513,26.451 55.687 C 26.377 55.745,26.302 55.905,26.284 56.045 C 26.263 56.213,26.192 56.293,26.075 56.283 C 25.977 56.276,25.898 56.333,25.898 56.410 C 25.898 56.487,25.824 56.550,25.734 56.550 C 25.607 56.550,25.595 56.582,25.684 56.688 C 25.801 56.829,25.474 57.764,25.308 57.764 C 25.267 57.764,25.180 57.906,25.115 58.080 C 25.039 58.282,24.945 58.377,24.856 58.342 C 24.754 58.303,24.728 58.354,24.762 58.530 C 24.792 58.691,24.691 58.949,24.457 59.305 C 24.264 59.598,24.046 59.952,23.974 60.091 C 23.901 60.230,23.786 60.389,23.718 60.445 C 23.651 60.501,23.566 60.671,23.531 60.824 C 23.487 61.013,23.401 61.103,23.266 61.103 C 23.120 61.103,23.065 61.171,23.065 61.351 C 23.065 61.488,22.929 61.831,22.762 62.114 C 22.595 62.397,22.458 62.666,22.458 62.712 C 22.458 62.758,22.374 62.904,22.271 63.036 C 22.169 63.169,22.054 63.403,22.017 63.556 C 21.979 63.711,21.879 63.834,21.792 63.834 C 21.579 63.834,21.314 64.112,21.375 64.271 C 21.402 64.341,21.361 64.485,21.284 64.591 C 21.206 64.697,21.143 64.866,21.143 64.966 C 21.143 65.067,21.109 65.149,21.067 65.150 C 20.990 65.150,20.495 66.063,20.395 66.388 C 20.365 66.486,20.268 66.566,20.179 66.566 C 20.083 66.566,20.048 66.518,20.091 66.449 C 20.135 66.376,20.118 66.359,20.046 66.404 C 19.982 66.444,19.929 66.542,19.929 66.622 C 19.929 66.702,19.876 66.768,19.811 66.768 C 19.746 66.768,19.723 66.798,19.760 66.834 C 19.796 66.871,19.776 66.962,19.714 67.037 C 19.636 67.130,19.634 67.172,19.709 67.172 C 19.878 67.172,19.638 67.766,19.423 67.881 C 19.269 67.963,19.248 67.943,19.284 67.752 C 19.324 67.541,19.320 67.539,19.230 67.729 C 19.177 67.840,19.131 68.034,19.127 68.159 C 19.123 68.291,19.056 68.386,18.968 68.386 C 18.859 68.386,18.816 68.499,18.816 68.790 C 18.816 69.148,18.771 69.223,18.412 69.461 C 17.986 69.742,17.866 69.885,18.209 69.702 C 18.482 69.555,18.476 69.724,18.193 70.106 C 18.073 70.269,17.930 70.374,17.874 70.340 C 17.817 70.304,17.805 70.329,17.847 70.396 C 17.961 70.581,17.609 71.396,17.390 71.453 C 17.263 71.486,17.198 71.593,17.198 71.766 C 17.198 72.038,16.955 72.136,16.860 71.902 C 16.832 71.832,16.806 71.901,16.801 72.054 C 16.796 72.224,16.737 72.332,16.648 72.332 C 16.487 72.332,16.341 72.679,16.437 72.834 C 16.470 72.888,16.432 73.037,16.352 73.164 C 16.272 73.290,16.174 73.545,16.136 73.730 C 16.060 74.092,15.812 74.265,15.678 74.048 C 15.623 73.958,15.573 74.046,15.529 74.312 C 15.446 74.810,15.281 75.271,15.114 75.468 C 15.044 75.552,14.935 75.734,14.873 75.873 C 14.585 76.513,14.387 76.804,14.165 76.916 C 13.997 77.000,13.917 77.135,13.900 77.363 C 13.887 77.543,13.779 77.826,13.661 77.991 C 13.544 78.156,13.399 78.430,13.340 78.599 C 13.243 78.879,13.187 78.926,12.986 78.899 C 12.905 78.888,12.750 79.126,12.750 79.262 C 12.750 79.317,12.794 79.294,12.848 79.211 C 12.979 79.008,12.976 79.173,12.844 79.420 C 12.787 79.528,12.678 79.616,12.602 79.616 C 12.444 79.616,12.312 79.890,12.401 80.034 C 12.478 80.158,12.246 80.440,12.128 80.367 C 12.079 80.337,12.038 80.402,12.038 80.512 C 12.038 80.798,11.646 81.675,11.475 81.770 C 11.395 81.815,11.330 81.939,11.330 82.046 C 11.330 82.153,11.205 82.319,11.052 82.415 C 10.899 82.511,10.752 82.605,10.726 82.625 C 10.700 82.645,10.740 82.699,10.815 82.746 C 10.890 82.792,10.920 82.881,10.882 82.943 C 10.780 83.107,10.622 83.080,10.622 82.897 C 10.622 82.811,10.575 82.769,10.517 82.805 C 10.459 82.841,10.440 82.960,10.475 83.071 C 10.523 83.220,10.484 83.286,10.328 83.327 C 10.211 83.357,10.116 83.448,10.116 83.528 C 10.116 83.608,10.162 83.646,10.218 83.612 C 10.353 83.528,10.345 83.605,10.175 84.011 C 10.097 84.200,9.935 84.406,9.817 84.469 C 9.659 84.554,9.619 84.642,9.668 84.796 C 9.724 84.973,9.701 84.998,9.521 84.951 C 9.348 84.906,9.307 84.941,9.307 85.132 C 9.307 85.279,9.231 85.392,9.105 85.432 C 8.993 85.468,8.902 85.545,8.902 85.603 C 8.902 85.671,8.956 85.665,9.050 85.588 C 9.172 85.486,9.191 85.500,9.159 85.666 C 9.091 86.017,8.801 86.495,8.656 86.495 C 8.569 86.495,8.535 86.567,8.567 86.687 C 8.602 86.820,8.520 86.952,8.305 87.111 C 8.133 87.238,7.993 87.390,7.993 87.449 C 7.994 87.509,8.042 87.489,8.099 87.405 C 8.181 87.285,8.197 87.306,8.173 87.506 C 8.156 87.653,8.048 87.801,7.916 87.859 C 7.757 87.929,7.688 88.045,7.688 88.246 C 7.688 88.403,7.557 88.723,7.397 88.955 C 7.237 89.188,7.089 89.470,7.068 89.581 C 7.048 89.692,6.881 89.849,6.697 89.929 C 6.458 90.034,6.371 90.135,6.388 90.283 C 6.429 90.642,6.146 91.266,5.963 91.219 C 5.873 91.195,5.795 91.227,5.789 91.289 C 5.760 91.584,5.692 91.768,5.568 91.883 C 5.475 91.969,5.454 91.971,5.500 91.889 C 5.537 91.823,5.520 91.740,5.462 91.704 C 5.392 91.661,5.378 91.771,5.420 92.031 C 5.491 92.480,5.235 92.847,5.052 92.558 C 4.982 92.447,4.957 92.473,4.948 92.666 C 4.941 92.805,4.929 92.987,4.921 93.070 C 4.898 93.306,4.459 94.082,4.348 94.082 C 4.293 94.082,4.249 94.173,4.249 94.284 C 4.249 94.396,4.158 94.578,4.047 94.689 C 3.935 94.800,3.844 94.959,3.844 95.042 C 3.844 95.125,3.753 95.250,3.642 95.319 C 3.531 95.389,3.440 95.549,3.440 95.675 C 3.440 95.802,3.280 96.132,3.085 96.409 C 2.891 96.686,2.731 96.970,2.730 97.040 C 2.727 97.251,2.571 97.432,2.367 97.461 C 2.245 97.479,2.164 97.585,2.144 97.753 C 2.122 97.934,2.066 97.999,1.967 97.960 C 1.868 97.923,1.821 97.974,1.821 98.118 C 1.821 98.235,1.780 98.331,1.731 98.331 C 1.681 98.331,1.615 98.397,1.584 98.477 C 1.544 98.581,1.576 98.605,1.694 98.560 C 1.831 98.508,1.822 98.559,1.644 98.846 C 1.325 99.363,1.114 99.783,1.113 99.906 C 1.113 100.064,0.638 100.451,0.543 100.371 C 0.498 100.334,0.518 100.377,0.586 100.466 C 0.686 100.599,0.671 100.677,0.506 100.887 C 0.395 101.029,0.303 101.263,0.303 101.407 L 0.303 101.669 6.128 101.669 C 12.182 101.669,12.430 101.652,12.187 101.259 C 12.105 101.126,12.313 100.578,12.549 100.303 C 12.645 100.192,12.754 99.999,12.792 99.874 C 12.830 99.748,12.899 99.646,12.945 99.646 C 12.991 99.646,13.059 99.521,13.098 99.368 C 13.136 99.216,13.209 99.041,13.260 98.980 C 13.310 98.919,13.494 98.600,13.668 98.271 C 13.841 97.942,14.041 97.605,14.112 97.521 C 14.182 97.438,14.271 97.267,14.309 97.142 C 14.350 97.009,14.460 96.915,14.574 96.915 C 14.725 96.915,14.770 96.843,14.770 96.602 C 14.770 96.374,14.825 96.274,14.972 96.236 C 15.124 96.196,15.175 96.098,15.175 95.841 C 15.175 95.652,15.216 95.498,15.266 95.498 C 15.381 95.498,15.759 94.863,15.843 94.529 C 15.878 94.391,16.040 94.208,16.203 94.124 C 16.433 94.005,16.485 93.924,16.435 93.765 C 16.376 93.579,16.391 93.570,16.595 93.679 C 16.805 93.792,16.816 93.783,16.757 93.548 C 16.702 93.326,16.871 93.019,17.006 93.096 C 17.029 93.110,16.993 93.072,16.924 93.011 C 16.853 92.948,16.838 92.862,16.889 92.809 C 16.938 92.758,17.123 92.429,17.300 92.077 C 17.519 91.643,17.668 91.455,17.764 91.492 C 17.866 91.531,17.906 91.462,17.906 91.242 C 17.906 90.772,18.694 89.371,18.947 89.392 C 19.072 89.402,19.120 89.328,19.120 89.126 C 19.120 88.807,19.368 88.524,19.457 88.741 C 19.487 88.813,19.487 88.730,19.457 88.555 C 19.422 88.350,19.465 88.137,19.581 87.948 C 20.078 87.139,20.293 86.831,20.490 86.646 C 20.609 86.535,20.687 86.386,20.663 86.314 C 20.593 86.112,20.851 85.844,20.956 86.009 C 21.009 86.093,21.039 86.020,21.040 85.805 C 21.042 85.465,21.490 84.573,21.659 84.573 C 21.709 84.573,21.750 84.482,21.750 84.370 C 21.750 84.259,21.838 84.081,21.944 83.974 C 22.051 83.867,22.154 83.678,22.172 83.554 C 22.190 83.430,22.296 83.279,22.408 83.217 C 22.519 83.156,22.627 83.096,22.649 83.084 C 22.670 83.072,22.700 82.953,22.714 82.821 C 22.747 82.519,23.002 82.020,23.210 81.847 C 23.297 81.774,23.369 81.637,23.369 81.541 C 23.369 81.445,23.460 81.284,23.571 81.184 C 23.682 81.083,23.773 80.916,23.773 80.813 C 23.773 80.710,23.922 80.409,24.104 80.146 C 24.287 79.882,24.489 79.545,24.554 79.397 C 24.618 79.249,24.760 79.099,24.868 79.065 C 24.986 79.027,25.091 78.873,25.130 78.677 C 25.183 78.412,25.216 78.380,25.303 78.503 C 25.388 78.624,25.400 78.609,25.360 78.427 C 25.332 78.302,25.350 78.199,25.398 78.199 C 25.447 78.199,25.462 78.135,25.432 78.057 C 25.402 77.979,25.506 77.723,25.663 77.489 C 25.820 77.255,26.050 76.898,26.174 76.695 C 26.326 76.449,26.401 76.388,26.402 76.511 C 26.403 76.614,26.451 76.665,26.511 76.628 C 26.570 76.591,26.591 76.440,26.558 76.291 C 26.522 76.124,26.557 75.943,26.650 75.820 C 26.734 75.709,26.803 75.676,26.805 75.746 C 26.807 75.816,26.846 75.873,26.893 75.873 C 26.979 75.873,26.992 75.827,27.046 75.327 C 27.064 75.166,27.142 74.984,27.221 74.923 C 27.300 74.861,27.369 74.753,27.375 74.684 C 27.380 74.614,27.392 74.489,27.400 74.406 C 27.408 74.322,27.487 74.254,27.574 74.254 C 27.689 74.254,27.715 74.316,27.670 74.482 C 27.615 74.685,27.620 74.689,27.723 74.525 C 27.786 74.423,27.814 74.241,27.783 74.120 C 27.749 73.983,27.807 73.805,27.935 73.647 C 28.078 73.473,28.124 73.451,28.083 73.576 C 28.049 73.684,28.066 73.733,28.125 73.697 C 28.180 73.662,28.196 73.516,28.159 73.372 C 28.106 73.157,28.156 73.056,28.437 72.813 C 28.626 72.650,28.724 72.546,28.655 72.582 C 28.472 72.676,28.497 72.378,28.687 72.187 C 28.774 72.100,28.891 72.028,28.946 72.028 C 29.001 72.028,29.019 71.985,28.986 71.931 C 28.902 71.796,29.394 70.853,29.586 70.780 C 29.672 70.747,29.742 70.630,29.742 70.520 C 29.742 70.410,29.795 70.288,29.859 70.248 C 29.937 70.200,29.949 70.223,29.895 70.318 C 29.845 70.407,29.881 70.398,29.993 70.292 C 30.092 70.200,30.172 69.995,30.172 69.837 C 30.172 69.523,30.476 69.058,30.605 69.174 C 30.649 69.214,30.650 69.186,30.608 69.113 C 30.494 68.916,30.960 68.097,31.207 68.062 C 31.364 68.039,31.405 67.968,31.382 67.754 C 31.349 67.439,31.617 67.353,31.696 67.653 C 31.721 67.750,31.747 67.616,31.754 67.355 C 31.764 66.952,32.031 66.276,32.267 66.060 C 32.297 66.032,32.394 65.873,32.483 65.706 C 32.571 65.539,32.700 65.415,32.768 65.430 C 32.837 65.445,32.864 65.411,32.829 65.354 C 32.794 65.297,32.809 65.250,32.863 65.250 C 32.916 65.250,32.936 65.159,32.907 65.046 C 32.852 64.834,33.306 64.036,33.482 64.036 C 33.534 64.036,33.606 63.880,33.642 63.688 C 33.690 63.436,33.767 63.331,33.924 63.309 C 34.078 63.287,34.140 63.205,34.141 63.025 C 34.142 62.854,34.193 62.780,34.299 62.797 C 34.421 62.816,34.447 62.746,34.416 62.476 C 34.384 62.201,34.429 62.084,34.638 61.902 C 34.783 61.776,34.905 61.602,34.910 61.514 C 34.914 61.427,35.025 61.173,35.155 60.951 C 35.286 60.728,35.464 60.394,35.551 60.208 C 35.637 60.023,35.800 59.847,35.912 59.817 C 36.049 59.781,36.117 59.677,36.120 59.498 C 36.128 59.084,36.849 57.865,37.086 57.865 C 37.231 57.865,37.267 57.758,37.232 57.429 C 37.219 57.304,37.271 57.256,37.396 57.278 C 37.537 57.302,37.600 57.215,37.666 56.904 C 37.806 56.254,38.020 55.842,38.265 55.752 C 38.390 55.705,38.481 55.638,38.467 55.603 C 38.394 55.418,38.462 55.221,38.619 55.164 C 38.804 55.095,38.944 54.940,38.946 54.799 C 38.947 54.754,38.902 54.746,38.847 54.780 C 38.696 54.873,38.724 54.671,38.879 54.542 C 38.977 54.461,39.046 54.463,39.132 54.550 C 39.224 54.641,39.251 54.605,39.251 54.396 C 39.251 54.245,39.302 54.122,39.364 54.122 C 39.429 54.122,39.454 54.033,39.423 53.914 C 39.322 53.529,39.868 52.575,39.987 52.928 C 40.011 53.001,40.013 52.953,39.991 52.823 C 39.948 52.566,40.129 52.269,40.274 52.359 C 40.324 52.390,40.364 52.278,40.364 52.111 C 40.364 51.944,40.411 51.779,40.468 51.744 C 40.525 51.708,40.699 51.398,40.855 51.055 C 41.012 50.711,41.215 50.367,41.308 50.291 C 41.401 50.215,41.477 50.093,41.477 50.020 C 41.477 49.840,41.775 49.555,41.890 49.626 C 41.978 49.680,41.997 49.629,42.024 49.267 C 42.031 49.183,42.214 48.773,42.431 48.356 C 42.649 47.939,42.915 47.427,43.023 47.218 C 43.130 47.009,43.280 46.839,43.356 46.839 C 43.518 46.839,43.694 46.536,43.632 46.364 C 43.545 46.122,44.250 45.219,44.346 45.451 C 44.374 45.519,44.373 45.434,44.344 45.262 C 44.290 44.946,44.533 44.552,44.713 44.663 C 44.759 44.691,44.771 44.619,44.741 44.502 C 44.677 44.258,44.917 44.047,45.039 44.239 C 45.087 44.315,45.116 44.276,45.117 44.133 C 45.118 44.007,45.170 43.905,45.232 43.905 C 45.297 43.905,45.321 43.815,45.289 43.693 C 45.258 43.572,45.325 43.323,45.446 43.111 C 45.562 42.908,45.721 42.617,45.799 42.466 C 45.877 42.314,46.052 42.103,46.188 41.995 C 46.335 41.880,46.412 41.739,46.377 41.649 C 46.345 41.566,46.368 41.467,46.427 41.431 C 46.487 41.394,46.535 41.412,46.535 41.471 C 46.535 41.622,46.701 41.605,46.718 41.452 C 46.768 40.991,46.859 40.730,47.195 40.070 C 47.414 39.639,47.653 39.306,47.763 39.277 C 47.866 39.250,47.957 39.165,47.964 39.088 C 47.989 38.811,48.003 38.761,48.078 38.687 C 48.120 38.645,48.154 38.664,48.154 38.729 C 48.154 38.794,48.202 38.847,48.261 38.847 C 48.320 38.847,48.339 38.800,48.304 38.743 C 48.215 38.600,48.478 38.037,48.634 38.037 C 48.704 38.037,48.764 38.117,48.769 38.214 C 48.774 38.327,48.796 38.344,48.829 38.261 C 48.904 38.074,49.165 38.306,49.165 38.559 C 49.165 38.665,49.236 38.779,49.322 38.812 C 49.408 38.845,49.609 39.131,49.769 39.447 C 49.929 39.763,50.131 40.082,50.219 40.155 C 50.307 40.228,50.379 40.389,50.379 40.513 C 50.379 40.636,50.472 40.821,50.586 40.924 C 50.738 41.062,50.778 41.191,50.738 41.420 C 50.709 41.591,50.711 41.673,50.743 41.604 C 50.841 41.389,51.162 41.645,51.294 42.045 C 51.388 42.330,51.388 42.428,51.293 42.487 C 51.205 42.541,51.215 42.578,51.332 42.623 C 51.420 42.657,51.492 42.749,51.492 42.828 C 51.492 42.906,51.583 42.995,51.694 43.024 C 51.828 43.059,51.897 43.162,51.897 43.327 C 51.897 43.491,51.965 43.596,52.096 43.630 C 52.287 43.680,52.938 44.876,52.961 45.220 C 52.979 45.479,53.126 45.726,53.264 45.726 C 53.452 45.726,53.949 46.617,53.888 46.848 C 53.861 46.954,53.870 47.021,53.909 46.997 C 54.045 46.913,54.246 47.119,54.431 47.534 C 54.561 47.823,54.581 47.952,54.497 47.953 C 54.421 47.954,54.413 47.982,54.476 48.029 C 54.532 48.070,54.593 48.194,54.613 48.306 C 54.656 48.555,54.667 48.567,54.897 48.601 C 55.040 48.622,55.076 48.700,55.051 48.940 C 55.024 49.207,55.048 49.244,55.219 49.199 C 55.364 49.161,55.437 49.211,55.490 49.384 C 55.530 49.514,55.645 49.712,55.746 49.823 C 55.951 50.049,56.151 50.513,56.192 50.863 C 56.207 50.990,56.237 51.104,56.259 51.116 C 56.280 51.128,56.388 51.188,56.500 51.250 C 56.611 51.312,56.718 51.444,56.738 51.544 C 56.758 51.644,56.932 51.952,57.125 52.227 C 57.468 52.714,57.723 53.312,57.717 53.614 C 57.715 53.695,57.825 53.818,57.961 53.886 C 58.177 53.993,58.370 54.265,58.634 54.831 C 58.673 54.914,58.783 55.073,58.878 55.185 C 59.098 55.441,59.300 56.035,59.214 56.173 C 59.178 56.232,59.198 56.248,59.259 56.210 C 59.330 56.167,59.366 56.247,59.361 56.433 C 59.352 56.759,59.443 56.955,59.604 56.955 C 59.671 56.955,59.663 56.897,59.583 56.801 C 59.477 56.673,59.482 56.657,59.614 56.708 C 59.702 56.741,59.820 56.902,59.876 57.064 C 59.933 57.227,60.020 57.360,60.070 57.360 C 60.241 57.360,60.504 58.189,60.381 58.337 C 60.295 58.441,60.307 58.472,60.433 58.472 C 60.542 58.472,60.597 58.560,60.597 58.738 C 60.597 58.962,60.620 58.984,60.749 58.877 C 60.876 58.771,60.901 58.789,60.902 58.991 C 60.904 59.273,60.980 59.393,61.252 59.544 C 61.491 59.676,61.612 60.072,61.488 60.319 C 61.423 60.449,61.440 60.496,61.554 60.496 C 61.653 60.496,61.710 60.589,61.710 60.749 C 61.710 60.888,61.758 61.002,61.817 61.002 C 61.876 61.002,61.895 61.048,61.860 61.105 C 61.825 61.162,61.834 61.196,61.881 61.181 C 61.982 61.148,62.463 61.577,62.481 61.715 C 62.488 61.768,62.499 61.874,62.506 61.951 C 62.513 62.028,62.604 62.113,62.708 62.140 C 62.815 62.168,63.040 62.472,63.224 62.835 C 63.404 63.190,63.596 63.535,63.651 63.602 C 63.705 63.669,63.724 63.767,63.691 63.821 C 63.602 63.964,63.734 64.239,63.892 64.239 C 63.967 64.239,64.081 64.335,64.144 64.453 C 64.225 64.604,64.226 64.647,64.148 64.599 C 64.086 64.561,64.036 64.580,64.036 64.640 C 64.036 64.700,64.146 64.791,64.279 64.842 C 64.552 64.945,65.282 66.264,65.194 66.493 C 65.165 66.568,65.212 66.763,65.297 66.926 C 65.382 67.089,65.452 67.168,65.452 67.100 C 65.453 66.894,65.706 67.059,65.838 67.352 C 65.906 67.504,66.074 67.810,66.209 68.032 C 66.769 68.949,66.809 69.047,66.862 69.626 C 66.866 69.667,66.955 69.702,67.059 69.702 C 67.179 69.702,67.298 69.823,67.382 70.030 C 67.521 70.372,67.869 70.920,68.016 71.028 C 68.062 71.062,68.091 71.176,68.080 71.281 C 68.034 71.711,68.086 72.038,68.191 71.974 C 68.250 71.937,68.321 71.992,68.348 72.095 C 68.375 72.199,68.532 72.361,68.695 72.455 C 68.859 72.549,68.993 72.697,68.993 72.783 C 68.993 72.870,69.157 73.173,69.356 73.457 C 69.572 73.764,69.699 74.049,69.670 74.160 C 69.640 74.278,69.705 74.400,69.850 74.495 C 69.975 74.578,70.105 74.779,70.138 74.943 C 70.171 75.107,70.261 75.305,70.339 75.382 C 70.416 75.460,70.465 75.620,70.447 75.739 C 70.422 75.900,70.458 75.943,70.589 75.909 C 70.820 75.851,71.335 76.653,71.257 76.950 C 71.217 77.103,71.259 77.175,71.413 77.215 C 71.528 77.245,71.650 77.354,71.682 77.456 C 71.854 77.993,72.094 78.467,72.255 78.585 C 72.468 78.742,72.747 79.364,72.685 79.542 C 72.630 79.699,72.830 79.960,73.077 80.053 C 73.204 80.101,73.248 80.190,73.212 80.326 C 73.178 80.458,73.225 80.564,73.348 80.630 C 73.580 80.754,74.077 81.718,73.986 81.866 C 73.947 81.928,73.967 81.944,74.032 81.904 C 74.176 81.815,74.484 82.281,74.437 82.519 C 74.416 82.625,74.486 82.744,74.605 82.805 C 74.717 82.862,74.825 82.998,74.846 83.108 C 74.867 83.218,74.944 83.343,75.017 83.385 C 75.091 83.428,75.270 83.715,75.416 84.023 C 75.562 84.331,75.770 84.672,75.878 84.781 C 76.053 84.956,76.115 85.169,76.103 85.555 C 76.100 85.622,76.150 85.668,76.213 85.656 C 76.276 85.644,76.334 85.726,76.342 85.837 C 76.395 86.575,76.393 86.565,76.464 86.321 C 76.546 86.041,76.674 86.128,76.935 86.638 C 77.077 86.917,77.101 87.046,77.017 87.074 C 76.882 87.119,77.218 87.506,77.392 87.506 C 77.449 87.506,77.545 87.632,77.606 87.785 C 77.667 87.938,77.782 88.188,77.863 88.342 C 77.944 88.496,77.985 88.723,77.954 88.848 C 77.923 88.972,77.924 89.017,77.956 88.948 C 78.143 88.541,78.751 89.476,78.717 90.120 C 78.703 90.411,78.731 90.537,78.803 90.493 C 78.862 90.456,78.878 90.372,78.839 90.307 C 78.799 90.241,78.845 90.250,78.941 90.328 C 79.046 90.413,79.091 90.543,79.055 90.657 C 79.011 90.794,79.064 90.871,79.252 90.942 C 79.394 90.996,79.600 91.212,79.710 91.423 C 80.191 92.339,80.307 92.614,80.236 92.663 C 80.194 92.692,80.219 92.830,80.291 92.969 C 80.363 93.108,80.423 93.167,80.423 93.099 C 80.426 92.890,80.708 93.071,80.826 93.357 C 80.888 93.505,81.049 93.809,81.183 94.031 C 81.598 94.716,81.782 95.133,81.786 95.395 C 81.789 95.567,81.879 95.689,82.069 95.780 C 82.222 95.854,82.347 95.997,82.347 96.098 C 82.347 96.200,82.417 96.341,82.503 96.413 C 82.589 96.484,82.632 96.613,82.599 96.700 C 82.566 96.787,82.572 96.825,82.612 96.785 C 82.691 96.705,83.086 97.322,83.205 97.711 C 83.261 97.891,83.247 97.932,83.152 97.873 C 83.068 97.821,83.049 97.835,83.097 97.912 C 83.137 97.977,83.209 98.007,83.255 97.978 C 83.302 97.949,83.371 98.108,83.409 98.330 C 83.461 98.638,83.524 98.735,83.671 98.735 C 83.777 98.735,83.859 98.770,83.852 98.811 C 83.813 99.059,83.877 99.378,83.945 99.272 C 84.041 99.120,84.187 99.219,84.346 99.545 C 84.414 99.684,84.527 99.879,84.597 99.978 C 84.701 100.125,84.697 100.175,84.573 100.254 C 84.472 100.319,84.463 100.351,84.547 100.353 C 84.617 100.353,84.674 100.417,84.674 100.495 C 84.674 100.572,84.753 100.629,84.851 100.621 C 84.982 100.611,85.023 100.676,85.010 100.876 C 84.996 101.086,85.048 101.159,85.243 101.208 C 85.445 101.259,85.482 101.316,85.432 101.496 C 85.382 101.672,85.391 101.687,85.475 101.568 C 85.547 101.465,85.582 101.457,85.583 101.543 C 85.584 101.642,86.817 101.669,91.407 101.669 L 97.230 101.669 97.199 101.239 C 97.174 100.893,97.132 100.815,96.989 100.839 C 96.774 100.876,96.573 100.446,96.750 100.330 C 96.822 100.283,96.800 100.255,96.690 100.254 C 96.577 100.253,96.537 100.200,96.574 100.101 C 96.606 100.018,96.588 99.949,96.532 99.949 C 96.477 99.949,96.408 99.857,96.379 99.744 C 96.349 99.631,96.264 99.552,96.190 99.567 C 96.115 99.583,96.048 99.527,96.041 99.444 C 96.034 99.360,96.017 99.246,96.004 99.191 C 95.991 99.135,95.985 99.055,95.992 99.014 C 95.999 98.972,95.936 98.938,95.852 98.938 C 95.769 98.938,95.697 98.858,95.693 98.761 C 95.674 98.306,95.498 97.767,95.498 98.162 C 95.498 98.255,95.454 98.331,95.399 98.331 C 95.282 98.331,94.877 97.570,94.900 97.392 C 94.935 97.113,94.881 97.016,94.691 97.016 C 94.562 97.016,94.468 96.926,94.428 96.767 C 94.394 96.630,94.305 96.468,94.230 96.406 C 94.156 96.344,94.064 96.151,94.025 95.976 C 93.987 95.802,93.852 95.578,93.725 95.478 C 93.503 95.303,93.179 94.619,93.376 94.741 C 93.435 94.777,93.439 94.710,93.387 94.568 C 93.340 94.440,93.210 94.321,93.099 94.304 C 92.961 94.284,92.810 94.076,92.620 93.647 C 92.467 93.302,92.261 92.929,92.162 92.817 C 91.876 92.497,91.654 91.994,91.654 91.665 C 91.654 91.499,91.601 91.330,91.537 91.290 C 91.461 91.243,91.448 91.263,91.501 91.348 C 91.554 91.435,91.534 91.462,91.440 91.431 C 91.358 91.403,91.305 91.256,91.311 91.077 C 91.319 90.858,91.278 90.774,91.166 90.782 C 90.968 90.797,90.507 90.018,90.658 89.924 C 90.729 89.881,90.710 89.774,90.602 89.610 C 90.513 89.473,90.470 89.331,90.507 89.294 C 90.544 89.257,90.522 89.226,90.457 89.226 C 90.392 89.226,90.339 89.277,90.339 89.340 C 90.339 89.417,90.289 89.411,90.183 89.323 C 90.097 89.252,90.048 89.138,90.074 89.070 C 90.100 89.002,90.011 88.850,89.876 88.733 C 89.741 88.615,89.631 88.427,89.631 88.313 C 89.631 88.200,89.565 88.082,89.484 88.051 C 89.329 87.991,89.066 87.343,89.109 87.125 C 89.137 86.986,88.980 86.813,88.665 86.636 C 88.556 86.575,88.452 86.417,88.432 86.286 C 88.413 86.155,88.338 86.000,88.266 85.942 C 88.058 85.776,87.397 84.474,87.428 84.292 C 87.443 84.202,87.350 84.075,87.222 84.009 C 87.005 83.899,86.786 83.583,86.491 82.954 C 86.425 82.815,86.330 82.620,86.278 82.520 C 86.227 82.420,86.216 82.288,86.254 82.226 C 86.297 82.156,86.278 82.142,86.203 82.188 C 86.116 82.242,86.100 82.190,86.148 82.001 C 86.190 81.832,86.172 81.740,86.095 81.740 C 86.027 81.740,86.009 81.794,86.053 81.866 C 86.102 81.948,86.067 81.942,85.953 81.850 C 85.856 81.772,85.798 81.654,85.823 81.588 C 85.880 81.440,85.795 81.317,85.534 81.173 C 85.422 81.112,85.317 80.969,85.300 80.855 C 85.283 80.741,85.181 80.568,85.073 80.470 C 84.965 80.372,84.876 80.241,84.876 80.179 C 84.876 80.117,84.714 79.820,84.515 79.518 C 84.309 79.205,84.175 78.892,84.202 78.787 C 84.229 78.686,84.206 78.604,84.152 78.604 C 84.099 78.604,84.084 78.557,84.119 78.500 C 84.154 78.443,84.145 78.403,84.100 78.411 C 83.881 78.449,83.771 78.383,83.705 78.176 C 83.666 78.052,83.551 77.836,83.450 77.695 C 83.200 77.347,83.094 76.884,83.266 76.884 C 83.344 76.884,83.310 76.803,83.179 76.681 C 83.039 76.551,82.985 76.415,83.027 76.302 C 83.083 76.151,83.070 76.144,82.931 76.257 C 82.758 76.397,82.585 76.262,82.701 76.076 C 82.784 75.941,82.634 75.721,82.458 75.721 C 82.380 75.721,82.182 75.470,82.018 75.164 C 81.854 74.858,81.650 74.530,81.565 74.434 C 81.479 74.337,81.436 74.168,81.466 74.049 C 81.507 73.892,81.457 73.808,81.270 73.723 C 81.120 73.655,80.996 73.495,80.962 73.324 C 80.931 73.168,80.863 73.040,80.812 73.040 C 80.760 73.040,80.650 72.892,80.566 72.711 C 80.482 72.530,80.304 72.200,80.170 71.978 C 80.035 71.755,79.944 71.471,79.966 71.345 C 79.989 71.220,79.959 71.118,79.901 71.118 C 79.842 71.118,79.816 71.033,79.843 70.930 C 79.881 70.788,79.840 70.744,79.678 70.753 C 79.514 70.761,79.469 70.711,79.488 70.536 C 79.501 70.411,79.464 70.309,79.406 70.309 C 79.348 70.309,79.333 70.256,79.372 70.192 C 79.414 70.124,79.400 70.102,79.339 70.140 C 79.180 70.238,79.007 69.970,79.059 69.705 C 79.083 69.576,79.057 69.397,79.001 69.308 C 78.920 69.181,78.912 69.197,78.964 69.385 C 79.012 69.560,78.993 69.612,78.893 69.580 C 78.705 69.519,78.433 68.931,78.354 68.412 C 78.296 68.035,78.098 67.790,78.098 68.095 C 78.098 68.171,78.045 68.165,77.938 68.076 C 77.844 67.998,77.797 67.846,77.824 67.706 C 77.849 67.576,77.845 67.493,77.815 67.523 C 77.724 67.614,77.390 67.254,77.390 67.066 C 77.390 66.970,77.323 66.865,77.241 66.834 C 77.105 66.781,76.773 66.138,76.799 65.977 C 76.832 65.774,76.645 65.248,76.578 65.356 C 76.475 65.522,76.277 65.385,76.277 65.147 C 76.277 65.041,76.192 64.873,76.089 64.774 C 75.889 64.582,75.733 64.317,75.572 63.891 C 75.456 63.586,75.491 63.568,75.730 63.807 C 75.852 63.929,75.891 63.939,75.857 63.838 C 75.831 63.759,75.664 63.623,75.486 63.537 C 75.152 63.373,74.909 62.861,75.077 62.676 C 75.221 62.517,75.177 62.418,74.962 62.418 C 74.827 62.418,74.760 62.350,74.760 62.215 C 74.760 62.079,74.692 62.013,74.552 62.013 C 74.411 62.013,74.298 61.901,74.198 61.662 C 74.005 61.200,74.013 61.068,74.229 61.140 C 74.344 61.179,74.327 61.143,74.178 61.038 C 74.053 60.949,73.950 60.818,73.950 60.748 C 73.950 60.677,73.877 60.626,73.787 60.633 C 73.698 60.641,73.591 60.579,73.550 60.496 C 73.510 60.412,73.423 60.253,73.357 60.142 C 73.292 60.030,73.173 59.799,73.094 59.628 C 73.015 59.456,72.884 59.261,72.803 59.194 C 72.652 59.069,72.487 58.613,72.519 58.411 C 72.540 58.273,72.254 57.704,72.181 57.739 C 72.029 57.813,71.913 57.745,71.964 57.613 C 72.046 57.399,71.935 57.161,71.782 57.220 C 71.706 57.249,71.596 57.131,71.514 56.935 C 71.438 56.751,71.227 56.375,71.046 56.099 C 70.864 55.823,70.754 55.559,70.800 55.512 C 70.942 55.370,70.807 54.953,70.602 54.900 C 70.494 54.872,70.410 54.761,70.410 54.647 C 70.410 54.500,70.359 54.458,70.223 54.494 C 70.084 54.530,70.002 54.456,69.902 54.206 C 69.829 54.021,69.637 53.669,69.476 53.425 C 69.285 53.136,69.181 52.844,69.177 52.590 C 69.174 52.339,69.125 52.200,69.039 52.200 C 68.966 52.200,68.892 52.098,68.874 51.973 C 68.856 51.847,68.785 51.739,68.715 51.732 C 68.646 51.725,68.547 51.714,68.495 51.707 C 68.306 51.681,68.155 50.993,68.298 50.805 C 68.371 50.710,68.392 50.664,68.346 50.703 C 68.215 50.813,67.954 50.496,68.025 50.312 C 68.076 50.177,68.061 50.170,67.938 50.273 C 67.744 50.433,67.577 50.326,67.577 50.042 C 67.577 49.918,67.483 49.737,67.368 49.638 C 67.209 49.503,67.174 49.389,67.222 49.170 C 67.258 49.006,67.239 48.853,67.178 48.815 C 67.120 48.779,67.070 48.808,67.068 48.881 C 67.066 48.969,67.020 48.954,66.930 48.837 C 66.856 48.739,66.818 48.546,66.844 48.407 C 66.872 48.263,66.845 48.154,66.783 48.154 C 66.722 48.154,66.699 48.222,66.731 48.306 C 66.819 48.535,66.690 48.487,66.559 48.243 C 66.489 48.112,66.485 48.053,66.548 48.093 C 66.606 48.128,66.681 48.110,66.717 48.054 C 66.752 47.997,66.709 47.923,66.622 47.889 C 66.536 47.856,66.461 47.731,66.456 47.612 C 66.452 47.493,66.426 47.449,66.399 47.516 C 66.288 47.789,66.060 47.515,66.058 47.106 C 66.057 46.815,66.028 46.731,65.965 46.832 C 65.852 47.010,65.600 46.839,65.497 46.517 C 65.462 46.405,65.301 46.118,65.139 45.879 C 64.943 45.587,64.845 45.315,64.844 45.054 C 64.843 44.792,64.814 44.710,64.754 44.803 C 64.654 44.961,64.441 44.872,64.441 44.672 C 64.441 44.600,64.327 44.419,64.188 44.269 C 64.049 44.118,63.935 43.917,63.935 43.821 C 63.935 43.725,63.864 43.545,63.778 43.421 C 63.691 43.298,63.653 43.140,63.693 43.070 C 63.733 43.001,63.728 42.977,63.683 43.018 C 63.561 43.129,63.335 42.780,63.331 42.475 C 63.329 42.301,63.262 42.191,63.137 42.159 C 62.951 42.110,62.795 41.884,62.461 41.173 C 62.369 40.979,62.263 40.797,62.225 40.769 C 62.030 40.626,61.710 39.906,61.710 39.611 C 61.710 39.360,61.667 39.277,61.543 39.288 C 61.438 39.297,61.370 39.217,61.358 39.070 C 61.347 38.943,61.237 38.767,61.113 38.681 C 60.989 38.594,60.845 38.425,60.792 38.305 C 60.740 38.186,60.557 37.842,60.387 37.542 C 60.170 37.159,60.113 36.974,60.195 36.923 C 60.272 36.875,60.210 36.778,60.013 36.637 C 59.796 36.483,59.721 36.355,59.741 36.172 C 59.757 36.033,59.739 35.923,59.702 35.928 C 59.470 35.959,59.354 35.843,59.026 35.256 C 58.824 34.895,58.617 34.574,58.565 34.542 C 58.514 34.511,58.472 34.372,58.472 34.235 C 58.472 34.097,58.406 33.959,58.324 33.928 C 58.131 33.853,57.764 32.866,57.764 32.419 C 57.764 32.136,57.725 32.069,57.562 32.069 C 57.451 32.069,57.360 32.006,57.360 31.928 C 57.360 31.851,57.280 31.794,57.183 31.802 C 57.060 31.812,57.002 31.738,56.995 31.563 C 56.967 30.928,56.958 30.896,56.850 31.057 C 56.737 31.226,56.449 30.955,56.449 30.680 C 56.449 30.548,56.131 30.047,55.867 29.763 C 55.798 29.688,55.741 29.559,55.741 29.476 C 55.741 29.382,55.789 29.354,55.867 29.401 C 55.967 29.461,55.968 29.445,55.872 29.326 C 55.804 29.243,55.774 29.064,55.805 28.927 C 55.844 28.749,55.832 28.719,55.761 28.819 C 55.652 28.973,55.424 28.885,55.447 28.697 C 55.480 28.427,55.427 28.347,55.245 28.395 C 55.107 28.431,55.032 28.378,54.981 28.209 C 54.941 28.078,54.755 27.736,54.566 27.449 C 54.316 27.067,54.222 26.807,54.216 26.488 C 54.212 26.191,54.185 26.111,54.135 26.239 C 53.999 26.585,53.689 26.152,53.753 25.705 C 53.781 25.505,53.782 25.421,53.754 25.518 C 53.665 25.828,53.451 25.698,53.503 25.367 C 53.510 25.325,53.465 25.291,53.402 25.291 C 53.340 25.291,53.312 25.203,53.340 25.096 C 53.374 24.968,53.348 24.918,53.266 24.950 C 53.195 24.977,53.085 24.865,53.015 24.696 C 52.946 24.531,52.826 24.370,52.747 24.340 C 52.669 24.310,52.605 24.190,52.605 24.074 C 52.605 23.938,52.650 23.886,52.731 23.928 C 52.801 23.963,52.716 23.864,52.544 23.706 C 52.179 23.373,51.761 22.597,51.860 22.436 C 51.898 22.374,51.882 22.355,51.822 22.391 C 51.763 22.428,51.688 22.384,51.653 22.295 C 51.610 22.180,51.635 22.149,51.739 22.189 C 51.835 22.226,51.868 22.197,51.833 22.107 C 51.804 22.031,51.715 21.943,51.636 21.913 C 51.556 21.882,51.492 21.723,51.492 21.554 C 51.492 21.332,51.453 21.266,51.347 21.307 C 51.243 21.346,51.182 21.258,51.133 21.000 C 51.096 20.800,51.020 20.637,50.964 20.637 C 50.909 20.637,50.889 20.703,50.920 20.784 C 50.958 20.884,50.927 20.912,50.824 20.872 C 50.740 20.840,50.696 20.749,50.726 20.670 C 50.759 20.584,50.738 20.553,50.673 20.593 C 50.610 20.632,50.573 20.582,50.585 20.471 C 50.620 20.144,50.585 20.030,50.452 20.030 C 50.275 20.030,49.947 19.454,49.919 19.093 C 49.906 18.931,49.838 18.745,49.769 18.681 C 49.670 18.590,49.660 18.595,49.721 18.703 C 49.775 18.798,49.756 18.828,49.660 18.796 C 49.527 18.751,49.508 18.699,49.481 18.288 C 49.473 18.178,49.414 18.136,49.318 18.172 C 49.155 18.235,48.710 17.362,48.817 17.189 C 48.933 17.000,48.583 17.105,48.397 17.314 M123.217 48.862 L 123.217 75.063 127.668 75.063 L 132.119 75.063 132.144 61.995 L 132.170 48.926 143.385 61.995 L 154.599 75.063 160.557 75.063 C 163.834 75.063,166.515 75.041,166.515 75.014 C 166.515 74.986,160.971 68.738,154.194 61.129 C 147.418 53.520,141.841 47.241,141.802 47.177 C 141.757 47.105,146.425 42.435,154.072 34.901 C 160.860 28.214,166.414 22.724,166.414 22.702 C 166.414 22.679,163.713 22.661,160.413 22.661 L 154.412 22.661 143.291 33.966 L 132.170 45.271 132.144 33.966 L 132.119 22.661 127.668 22.661 L 123.217 22.661 123.217 48.862 M177.946 49.064 L 177.946 75.266 182.347 75.266 L 186.748 75.266 186.748 49.064 L 186.748 22.863 182.347 22.863 L 177.946 22.863 177.946 49.064 M201.416 49.058 L 201.416 75.266 205.817 75.266 L 210.218 75.266 210.218 53.161 L 210.218 31.057 217.404 31.057 C 221.689 31.057,224.987 31.100,225.573 31.163 C 230.593 31.701,233.228 34.451,233.682 39.626 C 233.749 40.390,233.787 47.013,233.788 58.042 L 233.789 75.266 238.192 75.266 L 242.595 75.266 242.561 55.412 C 242.525 33.908,242.558 35.227,242.013 33.232 C 240.607 28.085,236.399 24.737,229.691 23.426 C 227.201 22.940,227.084 22.936,213.885 22.892 L 201.416 22.850 201.416 49.058 M251.391 42.276 C 251.391 62.271,251.400 62.774,251.806 64.795 C 253.005 70.767,257.079 74.193,264.067 75.109 C 265.080 75.242,266.896 75.266,276.029 75.266 L 286.798 75.266 286.798 71.681 L 286.798 68.096 276.960 68.053 C 265.628 68.002,265.638 68.003,263.550 67.006 C 260.740 65.665,260.192 63.783,260.192 55.463 L 260.192 50.784 273.495 50.784 L 286.798 50.784 286.798 47.193 L 286.798 43.601 273.495 43.601 L 260.192 43.601 260.192 36.874 L 260.192 30.147 273.495 30.147 L 286.798 30.147 286.798 26.505 L 286.798 22.863 269.095 22.863 L 251.391 22.863 251.391 42.276 M292.969 27.213 L 292.969 31.563 300.303 31.563 L 307.638 31.563 307.638 53.414 L 307.638 75.266 312.241 75.266 L 316.844 75.266 316.844 53.414 L 316.844 31.563 324.330 31.563 L 331.816 31.563 331.816 27.213 L 331.816 22.863 312.393 22.863 L 292.969 22.863 292.969 27.213 M341.123 49.064 L 341.123 75.266 345.524 75.266 L 349.924 75.266 349.924 49.064 L 349.924 22.863 345.524 22.863 L 341.123 22.863 341.123 49.064 M384.642 22.972 C 370.399 23.879,362.412 33.258,362.423 49.064 C 362.432 61.841,367.848 70.558,377.845 73.884 C 381.400 75.066,382.614 75.182,391.983 75.237 L 399.798 75.282 399.798 71.283 L 399.798 67.284 392.135 67.247 C 384.680 67.211,384.445 67.204,383.490 66.988 C 375.913 65.273,371.538 58.737,371.526 49.115 C 371.514 39.406,376.157 32.503,383.713 30.996 C 384.456 30.847,385.505 30.819,391.477 30.783 L 398.381 30.741 398.381 26.802 L 398.381 22.863 392.135 22.878 C 388.699 22.886,385.327 22.928,384.642 22.972 M62.197 60.995 C 62.222 61.071,62.184 61.109,62.108 61.084 C 62.035 61.059,61.955 60.980,61.931 60.907 C 61.906 60.831,61.944 60.793,62.019 60.818 C 62.093 60.843,62.172 60.922,62.197 60.995 M0.000 101.517 C 0.000 101.601,0.046 101.669,0.101 101.669 C 0.157 101.669,0.202 101.601,0.202 101.517 C 0.202 101.434,0.157 101.366,0.101 101.366 C 0.046 101.366,0.000 101.434,0.000 101.517 " stroke="none" fill="#FFFFFF" fill-rule="evenodd"></path></g></svg>
